<?xml version="1.0" encoding="UTF-8"?><svg id="Layer_2" xmlns="http://www.w3.org/2000/svg" viewBox="0 0 665.4018 294.0715"><g id="Components"><g id="_6abb1b13-5def-4c19-8b8a-c678b55f8dcd_5"><path d="m1.2755,273.2793c.9023-1.0821,1.8085-2.3476,2.7109-3.4335,1.8085-2.3515,3.7967-3.7967,6.3279-1.6288,1.2656,1.0859,14.4643,13.7417,30.5536,13.7417,14.6402,0,24.2219-9.2223,24.2219-19.886,0-12.4761-10.8473-19.886-31.6357-28.5654-19.886-8.6755-31.8154-16.812-31.8154-37.4206,0-12.2926,9.7614-32.1786,38.5027-32.1786,17.7181,0,30.9169,9.2185,30.9169,9.2185,1.0821.5429,3.2538,2.7147,1.0821,6.1482-.7226,1.0859-1.4453,2.3515-2.1679,3.4335-1.6288,2.5312-3.4335,3.2538-6.3279,1.6288-1.2656-.7226-12.6558-8.3161-23.6828-8.3161-19.1634,0-24.9484,12.2926-24.9484,19.886,0,12.1129,9.2223,19.1634,24.4054,25.4913,24.4054,9.9411,40.1353,19.1596,40.1353,40.1315,0,18.8002-17.8978,32.5419-39.0495,32.5419-21.3313,0-35.7957-12.4761-38.1433-14.644-1.4491-1.2656-3.2538-2.7109-1.0859-6.1482Z" style="fill:#fff; stroke-width:0px;"/><path d="m132.0797,169.1499c0-1.8085,1.625-3.4335,3.4335-3.4335h7.0505c1.9882,0,3.4335,1.625,3.4335,3.4335v52.7873h73.3998v-52.7873c0-1.8085,1.4453-3.4335,3.4335-3.4335h7.0505c1.8085,0,3.4335,1.625,3.4335,3.4335v119.6757c0,1.8085-1.625,3.4373-3.4335,3.4373h-7.0505c-1.9882,0-3.4335-1.6288-3.4335-3.4373v-54.7755h-73.3998v54.7755c0,1.8085-1.4453,3.4373-3.4335,3.4373h-7.0505c-1.8085,0-3.4335-1.6288-3.4335-3.4373v-119.6757Z" style="fill:#fff; stroke-width:0px;"/><path d="m455.1182,169.1499c0-1.8085,1.4453-3.4335,3.4335-3.4335h71.2281c1.9882,0,3.4335,1.625,3.4335,3.4335v5.242c0,1.8085-1.4453,3.4373-3.4335,3.4373h-60.744v49.5335h51.885c1.8085,0,3.4335,1.625,3.4335,3.4335v5.242c0,1.8085-1.625,3.4373-3.4335,3.4373h-51.885v49.35c0,1.8085-1.625,3.4373-3.4335,3.4373h-7.0505c-1.9882,0-3.4335-1.6288-3.4335-3.4373v-119.6757Z" style="fill:#fff; stroke-width:0px;"/><path d="m616.503,177.8293h-31.456c-1.992,0-3.4373-1.6288-3.4373-3.4373v-5.242c0-1.8085,1.4453-3.4335,3.4373-3.4335h76.6498c1.9882,0,3.4335,1.625,3.4335,3.4335v5.242c0,1.8085-1.4453,3.4373-3.4335,3.4373h-31.456v110.9963c0,1.8085-1.6288,3.4373-3.4335,3.4373h-6.8708c-1.8085,0-3.4335-1.6288-3.4335-3.4373v-110.9963Z" style="fill:#fff; stroke-width:0px;"/><path d="m360.9241,227.7872c0-1.1776-.4626-2.2865-1.2923-3.1085l-61.1493-61.1531c-1.7091-1.7129-4.4964-1.7091-6.2132-.0038l-3.6629,3.6629c-1.7091,1.7091-1.7129,4.4964,0,6.217l54.3855,54.3855-54.3855,54.3817c-.8297.8297-1.2885,1.9309-1.2885,3.1047,0,1.1776.4588,2.2788,1.2885,3.1085l3.6629,3.6629c.8297.8297,1.9309,1.2885,3.1047,1.2885,1.1776,0,2.2788-.4588,3.1085-1.2885l61.1417-61.1455c.8373-.8297,1.3-1.9347,1.3-3.1123Z" style="fill:#fff; stroke-width:0px;"/><path d="m402.2676,224.6787l-61.1531-61.1531c-1.7091-1.7129-4.4964-1.7091-6.2132-.0038l-3.6629,3.6629c-1.7091,1.7091-1.7129,4.4964,0,6.217l54.3855,54.3855-54.3855,54.3817c-.8297.8297-1.2885,1.9309-1.2885,3.1047,0,1.1776.4588,2.2788,1.2885,3.1085l3.6629,3.6629c.8297.8297,1.9309,1.2885,3.1047,1.2885,1.1776,0,2.2788-.4588,3.1085-1.2885l61.1531-61.1531c.8297-.8297,1.2885-1.9309,1.2885-3.1047,0-1.1776-.4588-2.2788-1.2885-3.1085Z" style="fill:#fff; stroke-width:0px;"/><path d="m1.004,109.9889c.9023-1.0821,1.8085-2.3476,2.7109-3.4335,1.8085-2.3515,3.7967-3.7967,6.3279-1.6288,1.2656,1.0859,14.4643,13.7417,30.5536,13.7417,14.6402,0,24.2219-9.2223,24.2219-19.886,0-12.4761-10.8473-19.886-31.6357-28.5654C13.2966,61.5412,1.3673,53.4048,1.3673,32.7961,1.3673,20.5035,11.1287.6175,39.87.6175c17.7181,0,30.9169,9.2185,30.9169,9.2185,1.0821.5429,3.2538,2.7147,1.0821,6.1482-.7226,1.0859-1.4453,2.3515-2.1679,3.4335-1.6288,2.5312-3.4335,3.2538-6.3279,1.6288-1.2656-.7226-12.6558-8.3161-23.6828-8.3161-19.1634,0-24.9484,12.2926-24.9484,19.886,0,12.1129,9.2223,19.1634,24.4054,25.4913,24.4054,9.9411,40.1353,19.1596,40.1353,40.1315,0,18.8002-17.8978,32.5419-39.0495,32.5419-21.3313,0-35.7957-12.4761-38.1433-14.644-1.4491-1.2656-3.2538-2.7109-1.0859-6.1482Z" style="fill:#fff; stroke-width:0px;"/><path d="m334.6125.6175c18.2572,0,31.456,6.3279,43.7485,16.812,1.4453,1.4453,1.625,3.617.1797,5.0623-1.625,1.6288-3.6132,3.4335-5.0623,5.0623-1.625,1.8085-2.7109,1.6288-4.6991-.1797-9.2185-8.1364-22.2375-14.1011-34.3465-14.1011-28.5654,0-50.26,23.8625-50.26,51.8811,0,27.8428,21.6946,52.2482,50.26,52.2482,19.886,0,32.538-7.5935,32.538-7.5935v-25.3078h-20.7884c-1.9882,0-3.4335-1.4491-3.4335-3.2538v-6.6911c0-1.9882,1.4453-3.4335,3.4335-3.4335h31.2763c1.8047,0,3.2538,1.625,3.2538,3.4335v41.4009c0,.9023-.7265,2.3476-1.4491,2.8906,0,0-18.4369,11.9332-44.6509,11.9332-36.1551,0-65.2634-28.7451-65.2634-64.9002S298.4574.6175,334.6125.6175Z" style="fill:#fff; stroke-width:0px;"/><path d="m436.2145,5.8595c0-1.8085,1.625-3.4335,3.4335-3.4335h7.0505c1.9882,0,3.4335,1.625,3.4335,3.4335v52.7873h73.3998V5.8595c0-1.8085,1.4453-3.4335,3.4335-3.4335h7.0505c1.8085,0,3.4335,1.625,3.4335,3.4335v119.6757c0,1.8085-1.625,3.4373-3.4335,3.4373h-7.0505c-1.9882,0-3.4335-1.6288-3.4335-3.4373v-54.7755h-73.3998v54.7755c0,1.8085-1.4453,3.4373-3.4335,3.4373h-7.0505c-1.8085,0-3.4335-1.6288-3.4335-3.4373V5.8595Z" style="fill:#fff; stroke-width:0px;"/><path d="m616.7744,14.5389h-31.456c-1.992,0-3.4373-1.6288-3.4373-3.4373v-5.242c0-1.8085,1.4453-3.4335,3.4373-3.4335h76.6498c1.9882,0,3.4335,1.625,3.4335,3.4335v5.242c0,1.8085-1.4453,3.4373-3.4335,3.4373h-31.456v110.9963c0,1.8085-1.6288,3.4373-3.4335,3.4373h-6.8708c-1.8085,0-3.4335-1.6288-3.4335-3.4373V14.5389Z" style="fill:#fff; stroke-width:0px;"/><path d="m194.5307,65.5024c0-1.1738-.4588-2.275-1.2885-3.1047L132.0929,1.2446c-1.6556-1.6594-4.55-1.6594-6.2132,0l-3.6629,3.6629c-.8297.8297-1.2885,1.9309-1.2885,3.1085,0,1.1738.4588,2.275,1.2885,3.1047l54.3855,54.3817-54.3855,54.3855c-1.7129,1.7129-1.7129,4.5003,0,6.2132l3.6629,3.6629c.8297.8297,1.9309,1.2885,3.1047,1.2885,1.1776,0,2.2788-.4588,3.1085-1.2885l61.1493-61.1531c.8297-.8297,1.2885-1.9309,1.2885-3.1085Z" style="fill:#fff; stroke-width:0px;"/><path d="m174.725,1.2446c-1.6594-1.6594-4.5538-1.6594-6.2132,0l-3.6629,3.6629c-.8297.8297-1.2885,1.9309-1.2885,3.1085,0,1.1738.4588,2.275,1.2885,3.1047l54.3855,54.3817-54.3855,54.3855c-1.7129,1.7129-1.7129,4.5003,0,6.2132l3.6629,3.6629c.8297.8297,1.9309,1.2885,3.1047,1.2885,1.1776,0,2.2788-.4588,3.1085-1.2885l61.1531-61.1531c.8297-.8297,1.2885-1.9309,1.2885-3.1085,0-1.1738-.4588-2.275-1.2885-3.1047L174.725,1.2446Z" style="fill:#fff; stroke-width:0px;"/></g></g></svg>